Coordinates
version=1
nRows=31
nColumns=38
inDegrees=no

Units are S.I. units (second, meters, Newtons, ...)
If the header above contains a line with 'inDegrees', this indicates whether rotational values are in degrees (yes) or radians (no).

endheader
time	pelvis_tilt	pelvis_list	pelvis_rotation	pelvis_tx	pelvis_ty	pelvis_tz	hip_flexion_r	hip_adduction_r	hip_rotation_r	knee_angle_r	ankle_angle_r	subtalar_angle_r	mtp_angle_r	hip_flexion_l	hip_adduction_l	hip_rotation_l	knee_angle_l	ankle_angle_l	subtalar_angle_l	mtp_angle_l	lumbar_extension	lumbar_bending	lumbar_rotation	arm_flex_r	arm_add_r	arm_rot_r	elbow_flex_r	pro_sup_r	wrist_flex_r	wrist_dev_r	arm_flex_l	arm_add_l	arm_rot_l	elbow_flex_l	pro_sup_l	wrist_flex_l	wrist_dev_l
54.64	1.78294	1.52154	-0.197285	0.673621	-0.149577	0.933471	0.0880829	-0.114647	-0.244457	0.273985	0.0408618	0	0	0.13153	-0.239672	-0.410459	0.447268	0.125002	0	0	-0.299687	0.0314924	0.0545043	0.267278	-0.258043	0.705366	0.371365	1.03593	0	0	0.197268	-0.235336	0.411832	0.610464	1.06507	0	0
54.65	1.77641	1.51724	-0.188963	0.673343	-0.150613	0.931606	0.103991	-0.114292	-0.244227	0.303837	0.0514288	0	0	0.149826	-0.249297	-0.397557	0.477793	0.1327	0	0	-0.306445	0.0372069	0.054694	0.271679	-0.261431	0.706189	0.373303	1.03375	0	0	0.200394	-0.235453	0.40859	0.613013	1.06636	0	0
54.66	1.76687	1.51392	-0.177578	0.67308	-0.151753	0.929449	0.122314	-0.115588	-0.243871	0.337327	0.0642291	0	0	0.167398	-0.257413	-0.38579	0.506089	0.141082	0	0	-0.313123	0.0417956	0.0545464	0.276626	-0.26434	0.707545	0.374514	1.03131	0	0	0.203591	-0.235854	0.404454	0.615966	1.06759	0	0
54.67	1.77511	1.51193	-0.184675	0.672859	-0.152878	0.927138	0.141472	-0.118835	-0.241952	0.373585	0.0783209	0	0	0.181914	-0.263282	-0.376318	0.531091	0.149982	0	0	-0.320815	0.0444603	0.0546082	0.281993	-0.266664	0.708986	0.374969	1.02872	0	0	0.206954	-0.23633	0.398912	0.6188	1.06887	0	0
54.68	1.78565	1.51106	-0.194869	0.672743	-0.154062	0.924587	0.162495	-0.123361	-0.23785	0.412667	0.0932272	0	0	0.194958	-0.267634	-0.368514	0.554001	0.159633	0	0	-0.328725	0.0453974	0.055045	0.287791	-0.268265	0.710416	0.37439	1.02595	0	0	0.210802	-0.236901	0.392771	0.620986	1.07001	0	0
54.69	1.81308	1.51072	-0.222503	0.67272	-0.155261	0.921955	0.182624	-0.128185	-0.231835	0.45134	0.107619	0	0	0.205826	-0.270933	-0.361708	0.575309	0.169708	0	0	-0.337838	0.0450012	0.0558877	0.294074	-0.269218	0.711586	0.372724	1.0235	0	0	0.215235	-0.237754	0.387085	0.622858	1.07094	0	0
54.7	1.8507	1.51111	-0.261047	0.672788	-0.156515	0.919233	0.203088	-0.133791	-0.224327	0.49111	0.12244	0	0	0.215591	-0.273018	-0.355312	0.5959	0.180232	0	0	-0.347803	0.0431037	0.0572182	0.300904	-0.269386	0.712013	0.369528	1.02136	0	0	0.220258	-0.238683	0.381696	0.624478	1.07326	0	0
54.71	1.92995	1.51101	-0.341036	0.672888	-0.157705	0.916712	0.219207	-0.138868	-0.215867	0.527506	0.135576	0	0	0.221912	-0.274278	-0.348707	0.615098	0.190113	0	0	-0.360628	0.0404431	0.058297	0.308124	-0.268898	0.711177	0.365758	1.02063	0	0	0.226344	-0.239899	0.377424	0.62497	1.07518	0	0
54.72	2.02281	1.51142	-0.434724	0.673014	-0.15897	0.914126	0.234707	-0.14481	-0.206655	0.563098	0.148356	0	0	0.22799	-0.274047	-0.341754	0.634462	0.199234	0	0	-0.374265	0.036296	0.0591092	0.315572	-0.268005	0.709433	0.361967	1.02101	0	0	0.233135	-0.241442	0.373979	0.624942	1.07605	0	0
54.73	2.11542	1.51239	-0.528678	0.673208	-0.160377	0.911355	0.251208	-0.151281	-0.196204	0.59853	0.160792	0	0	0.235095	-0.272679	-0.334378	0.654444	0.208127	0	0	-0.387587	0.0309483	0.0598603	0.323274	-0.266574	0.706513	0.357832	1.02221	0	0	0.240408	-0.243223	0.371301	0.624477	1.07562	0	0
54.74	2.22016	1.5124	-0.6337	0.67329	-0.161802	0.908607	0.265578	-0.157517	-0.18715	0.631526	0.172	0	0	0.242139	-0.270762	-0.325152	0.67476	0.21657	0	0	-0.40178	0.0260496	0.0595292	0.330947	-0.265225	0.703314	0.35458	1.02324	0	0	0.248218	-0.245046	0.369611	0.623142	1.07417	0	0
54.75	2.30863	1.51314	-0.72223	0.673305	-0.163274	0.905594	0.282123	-0.164281	-0.178423	0.665148	0.183208	0	0	0.251931	-0.268322	-0.315584	0.696565	0.224917	0	0	-0.414196	0.0210663	0.058675	0.33827	-0.263682	0.698997	0.351283	1.0244	0	0	0.255944	-0.246848	0.368971	0.621422	1.0723	0	0
54.76	2.36548	1.51549	-0.779343	0.673337	-0.16485	0.902148	0.302272	-0.171153	-0.169801	0.699218	0.194672	0	0	0.266301	-0.266388	-0.306476	0.72093	0.233419	0	0	-0.423492	0.0161604	0.0577682	0.345036	-0.261841	0.69252	0.347795	1.02629	0	0	0.263159	-0.248779	0.369	0.620092	1.07046	0	0
54.77	2.36142	1.5241	-0.7784	0.673484	-0.167016	0.897679	0.333815	-0.179367	-0.156042	0.73657	0.205912	0	0	0.289925	-0.262653	-0.2987	0.748424	0.241597	0	0	-0.42573	0.00862732	0.0582938	0.351513	-0.260681	0.68652	0.345892	1.02843	0	0	0.269917	-0.250737	0.36952	0.619835	1.07006	0	0
54.78	2.32578	1.53036	-0.744908	0.673732	-0.169054	0.893223	0.361748	-0.183749	-0.143775	0.769636	0.216302	0	0	0.313237	-0.262515	-0.291266	0.77637	0.249928	0	0	-0.428455	0.00391189	0.059024	0.357316	-0.259753	0.679935	0.345119	1.03045	0	0	0.276631	-0.252514	0.370076	0.619109	1.07069	0	0
54.79	2.32291	1.53301	-0.742059	0.67379	-0.170709	0.889118	0.381998	-0.187012	-0.135697	0.798232	0.226707	0	0	0.331724	-0.263799	-0.283889	0.80237	0.258778	0	0	-0.434581	0.00173783	0.058396	0.362528	-0.259348	0.673265	0.345656	1.03221	0	0	0.283196	-0.253785	0.370225	0.617931	1.07257	0	0
54.8	2.33438	1.53499	-0.753247	0.673862	-0.17231	0.884971	0.400908	-0.190101	-0.128108	0.82626	0.237183	0	0	0.348858	-0.265331	-0.277214	0.827828	0.268095	0	0	-0.441496	-0.000259131	0.0575535	0.367381	-0.259135	0.666767	0.347192	1.0335	0	0	0.289866	-0.254733	0.369186	0.616179	1.07503	0	0
54.81	2.35079	1.53722	-0.76938	0.673929	-0.173941	0.880675	0.420537	-0.193267	-0.119958	0.854979	0.247441	0	0	0.366028	-0.266655	-0.271122	0.853335	0.277543	0	0	-0.448365	-0.00246091	0.0565414	0.372361	-0.258872	0.661175	0.348856	1.03421	0	0	0.296488	-0.255507	0.36784	0.614134	1.07872	0	0
54.82	2.37294	1.53951	-0.791149	0.673977	-0.175531	0.876238	0.440374	-0.196455	-0.111605	0.884015	0.257298	0	0	0.382994	-0.26787	-0.265458	0.878694	0.287435	0	0	-0.455195	-0.0048102	0.0556718	0.376835	-0.258812	0.655355	0.350959	1.03412	0	0	0.303072	-0.256166	0.366965	0.612502	1.08402	0	0
54.83	2.39636	1.54202	-0.813869	0.674023	-0.177071	0.871682	0.460699	-0.199356	-0.102496	0.913559	0.266881	0	0	0.400638	-0.26895	-0.259809	0.904482	0.296726	0	0	-0.461386	-0.00705278	0.0535562	0.381836	-0.257934	0.650232	0.351775	1.03464	0	0	0.308538	-0.254986	0.356411	0.609002	1.11268	0	0
54.84	2.43906	1.54344	-0.85568	0.674077	-0.178567	0.867125	0.479538	-0.201588	-0.0936272	0.942682	0.276316	0	0	0.417638	-0.270376	-0.253804	0.930737	0.30523	0	0	-0.468818	-0.00891627	0.0517424	0.386986	-0.257662	0.648225	0.35304	1.03241	0	0	0.314489	-0.255145	0.353557	0.607417	1.12093	0	0
54.85	2.49153	1.54406	-0.907445	0.674167	-0.180018	0.862556	0.497071	-0.203001	-0.0846449	0.970802	0.28569	0	0	0.433949	-0.271917	-0.247395	0.956858	0.313586	0	0	-0.477034	-0.0105958	0.0501897	0.392314	-0.257298	0.646103	0.353845	1.03172	0	0	0.320507	-0.254981	0.35061	0.605379	1.1277	0	0
54.86	2.52483	1.54417	-0.939943	0.674237	-0.181456	0.857898	0.514012	-0.203654	-0.0763665	0.998056	0.295048	0	0	0.45052	-0.274084	-0.240581	0.983145	0.322124	0	0	-0.485119	-0.011431	0.0487858	0.397953	-0.257105	0.644771	0.354003	1.03206	0	0	0.326159	-0.254554	0.347554	0.603025	1.133	0	0
54.87	2.55345	1.54416	-0.967699	0.674242	-0.182898	0.853172	0.530542	-0.204345	-0.0687632	1.02456	0.304273	0	0	0.467137	-0.276048	-0.233353	1.00927	0.330554	0	0	-0.493255	-0.0119139	0.0473297	0.403977	-0.256793	0.643798	0.353065	1.03384	0	0	0.331295	-0.253798	0.343668	0.601082	1.14007	0	0
54.88	2.59742	1.54364	-1.01104	0.674299	-0.184227	0.848382	0.546422	-0.205026	-0.0610522	1.05111	0.313247	0	0	0.482636	-0.277491	-0.22557	1.03498	0.339213	0	0	-0.501904	-0.0127565	0.0459192	0.410071	-0.256145	0.642857	0.351432	1.03661	0	0	0.336721	-0.252505	0.337894	0.597853	1.15222	0	0
54.89	2.66042	1.54297	-1.07317	0.674386	-0.185476	0.843537	0.561928	-0.206415	-0.0536591	1.07765	0.32182	0	0	0.497416	-0.278075	-0.217709	1.0601	0.347917	0	0	-0.51077	-0.0142171	0.0441007	0.415773	-0.255074	0.640884	0.349625	1.04122	0	0	0.34273	-0.251114	0.331408	0.593167	1.16592	0	0
54.9	2.71918	1.54288	-1.13091	0.674484	-0.186701	0.838587	0.577908	-0.207934	-0.0460621	1.10389	0.330777	0	0	0.512734	-0.278309	-0.210317	1.08479	0.356226	0	0	-0.51883	-0.0158585	0.0421419	0.421115	-0.253931	0.638299	0.347581	1.04765	0	0	0.348481	-0.249764	0.32493	0.58825	1.17618	0	0
54.91	2.78003	1.54248	-1.19078	0.674616	-0.187892	0.833708	0.5931	-0.209027	-0.0383951	1.12926	0.339563	0	0	0.527298	-0.278585	-0.203352	1.10868	0.364422	0	0	-0.5273	-0.0175669	0.0403558	0.426078	-0.253103	0.63585	0.346341	1.05345	0	0	0.35389	-0.248708	0.320226	0.585523	1.18157	0	0
54.92	2.82816	1.54217	-1.23857	0.674762	-0.189142	0.828876	0.608532	-0.209179	-0.0303274	1.15364	0.347169	0	0	0.541699	-0.278963	-0.196554	1.13182	0.372549	0	0	-0.535702	-0.019199	0.0393952	0.431018	-0.252604	0.633105	0.345245	1.05887	0	0	0.359435	-0.247265	0.315882	0.582622	1.18573	0	0
54.93	2.84955	1.54208	-1.26009	0.674907	-0.190438	0.824062	0.623906	-0.208459	-0.0228278	1.17666	0.354216	0	0	0.556582	-0.279827	-0.189525	1.15472	0.380123	0	0	-0.543675	-0.020189	0.0392713	0.435753	-0.252431	0.62959	0.344366	1.06346	0	0	0.365077	-0.245429	0.311724	0.579223	1.18773	0	0
54.94	2.85631	1.54158	-1.26713	0.675035	-0.19169	0.819365	0.638233	-0.207152	-0.0159968	1.19857	0.361309	0	0	0.571037	-0.281135	-0.182525	1.17723	0.387087	0	0	-0.551851	-0.0206135	0.0395714	0.440219	-0.252782	0.626666	0.344123	1.06663	0	0	0.370418	-0.243349	0.307972	0.57611	1.18644	0	0
